<?xml version="1.0" encoding="UTF-8" standalone="no"?>
<!DOCTYPE svg PUBLIC "-//W3C//DTD SVG 1.1//EN" "http://www.w3.org/Graphics/SVG/1.1/DTD/svg11.dtd">
<svg width="100%" height="100%" viewBox="0 0 512 512" version="1.1" xmlns="http://www.w3.org/2000/svg" xmlns:xlink="http://www.w3.org/1999/xlink" xml:space="preserve" xmlns:serif="http://www.serif.com/" style="fill-rule:evenodd;clip-rule:evenodd;stroke-linejoin:round;stroke-miterlimit:2;">
    <path d="M512,82.328C512,36.89 475.11,0 429.672,0L82.328,0C36.89,0 0,36.89 0,82.328L0,429.672C0,475.11 36.89,512 82.328,512L429.672,512C475.11,512 512,475.11 512,429.672L512,82.328Z" style="fill:rgb(175,29,242);"/>
    <g transform="matrix(0.75,0,0,0.75,64.0001,64)">
        <path d="M354.132,375.377L354.132,136.623C367.14,136.226 377.603,125.528 377.603,112.425C377.603,100.243 368.56,90.137 356.836,88.457C350.305,38.334 307.27,0 256,0C234.961,0 214.771,6.37 197.613,18.422C194.217,20.807 193.397,25.494 195.783,28.89C198.169,32.286 202.856,33.106 206.251,30.72C220.867,20.455 238.07,15.029 256,15.029C298.941,15.029 335.099,46.579 341.614,88.207L170.391,88.207C172.548,74.383 178.039,61.289 186.389,50.062C187.303,48.786 187.795,47.254 187.795,45.684C187.795,41.561 184.403,38.168 180.279,38.168C177.949,38.168 175.747,39.252 174.325,41.098C163.994,54.985 157.397,71.293 155.167,88.457C143.441,90.136 134.398,100.242 134.398,112.425C134.398,125.528 144.86,136.226 157.869,136.623L157.869,375.377C144.861,375.774 134.398,386.472 134.398,399.575C134.398,411.757 143.441,421.862 155.165,423.543C161.695,473.666 204.73,512 256,512C307.27,512 350.305,473.666 356.835,423.543C368.559,421.863 377.602,411.757 377.602,399.575C377.602,386.473 367.14,375.774 354.132,375.377ZM250.91,333.58C249.501,332.171 247.589,331.379 245.597,331.379C243.604,331.379 241.692,332.171 240.283,333.58L198.505,375.358L172.899,375.358L172.899,349.71L339.103,183.505L339.103,234.759L261.538,312.324C258.802,315.06 258.62,319.579 261.139,322.52C263.949,325.802 269.109,326.008 272.165,322.951L339.103,256.013L339.103,307.267L271.013,375.356L219.759,375.356L250.91,344.205C252.318,342.797 253.111,340.884 253.111,338.893C253.111,336.901 252.318,334.988 250.91,333.58ZM219.695,136.642L172.898,183.439L172.898,136.642L219.695,136.642ZM261.293,178.18C264.188,181.075 269.025,181.075 271.92,178.18L313.458,136.642L339.103,136.642L339.103,162.252L172.898,328.456L172.898,277.202L250.666,199.435C252.075,198.026 252.867,196.114 252.867,194.122C252.867,192.129 252.075,190.217 250.666,188.808C249.257,187.399 247.345,186.606 245.353,186.606C243.36,186.606 241.448,187.399 240.039,188.808L172.899,255.948L172.899,204.694L240.95,136.643L292.204,136.643L261.294,167.554C259.885,168.962 259.092,170.875 259.092,172.867C259.092,174.859 259.884,176.772 261.293,178.18ZM339.102,328.523L339.102,375.358L292.266,375.358L339.102,328.523ZM149.427,112.425C149.427,107.358 153.549,103.237 158.615,103.237L353.385,103.237C358.451,103.237 362.573,107.359 362.573,112.425C362.573,117.491 358.451,121.613 353.385,121.613L158.615,121.613C153.549,121.613 149.427,117.491 149.427,112.425ZM256,496.971C213.059,496.971 176.901,465.42 170.386,423.793L341.614,423.793C335.099,465.42 298.941,496.971 256,496.971ZM353.385,408.764L158.615,408.764C153.549,408.764 149.427,404.642 149.427,399.576C149.427,394.51 153.549,390.388 158.615,390.388L353.385,390.388C358.451,390.388 362.573,394.51 362.573,399.576C362.573,404.642 358.451,408.764 353.385,408.764Z" style="fill:rgb(252,219,3);fill-rule:nonzero;"/>
    </g>
</svg>
