<svg viewBox="0 0 512 512" xmlns="http://www.w3.org/2000/svg" fill-rule="evenodd" clip-rule="evenodd" stroke-linejoin="round" stroke-miterlimit="2">
    <path fill="#232323" d="M0 0h512v512H0z"/>
    <path d="M183.879 254.54l12.423-7.27v-31.537H8l19.52 15.274h153.508v15.884H47.82l19.52 15.275h113.688v15.884H87.642l19.52 15.273h87.787v-.061h1.353v-31.484l-12.423-7.238zM328.119 254.54l-12.424-7.27v-31.537H504l-19.52 15.274h-153.51v15.884h133.209l-19.52 15.275H330.97v15.884h93.386l-19.52 15.273h-87.788v-.061h-1.353V261.78l12.424-7.24z" fill="#d72323" fill-rule="nonzero"/>
    <path d="M254.862 201.348c30.161 0 54.65 24.489 54.65 54.652s-24.489 54.65-54.65 54.65c-30.165 0-54.654-24.487-54.654-54.65s24.49-54.652 54.654-54.652zm0 20.22c19.002 0 34.43 15.429 34.43 34.433 0 19.003-15.428 34.431-34.43 34.431-19.005 0-34.434-15.428-34.434-34.431 0-19.004 15.429-34.433 34.434-34.433z" fill="#d72323"/>
    <circle cx="1236.6" cy="809.007" r="55.702" fill="#d72323" transform="matrix(.31957 0 0 .31957 -140.324 -2.539)"/>
</svg>
