<svg viewBox="0 0 512 512" xmlns="http://www.w3.org/2000/svg" fill-rule="evenodd" clip-rule="evenodd"
    stroke-linejoin="round" stroke-miterlimit="2">
    <path
        d="M512 82.328C512 36.89 475.11 0 429.672 0H82.328C36.89 0 0 36.89 0 82.328v347.344C0 475.11 36.89 512 82.328 512h347.344C475.11 512 512 475.11 512 429.672V82.328z"
        fill="#232323" />
    <path
        d="M329.6 345.533V166.467c9.755-.297 17.602-8.321 17.602-18.148 0-9.137-6.782-16.716-15.575-17.976C326.73 92.75 294.453 64 256 64c-15.78 0-30.922 4.778-43.79 13.817a5.635 5.635 0 106.478 9.224c10.962-7.7 23.865-11.77 37.312-11.77 32.206 0 59.324 23.663 64.21 54.884H191.794a64.64 64.64 0 0111.999-28.608 5.64 5.64 0 001.054-3.284c0-3.092-2.544-5.637-5.637-5.637a5.64 5.64 0 00-4.465 2.198 75.894 75.894 0 00-14.369 35.519c-8.794 1.259-15.576 8.839-15.576 17.976 0 9.827 7.846 17.85 17.603 18.148v179.066c-9.756.297-17.603 8.321-17.603 18.148 0 9.137 6.782 16.716 15.575 17.976C185.27 419.25 217.548 448 256 448c38.453 0 70.729-28.75 75.626-66.343 8.793-1.26 15.576-8.84 15.576-17.976 0-9.826-7.847-17.85-17.603-18.148zm-77.417-31.348a5.637 5.637 0 00-7.97 0l-31.334 31.334h-19.205v-19.237L318.327 201.63v38.44l-58.173 58.174c-2.052 2.052-2.189 5.441-.3 7.647 2.108 2.462 5.978 2.616 8.27.323l50.203-50.203v38.44l-51.067 51.067h-38.44l23.363-23.363a5.638 5.638 0 000-7.969zM228.77 166.482l-35.097 35.097v-35.098h35.097zm31.199 31.153c2.171 2.171 5.799 2.171 7.97 0l31.154-31.153h19.233v19.207L193.674 310.342v-38.44L252 213.576a5.637 5.637 0 00-7.97-7.97l-50.356 50.355v-38.44l51.039-51.039h38.44l-23.182 23.184a5.636 5.636 0 00-.001 7.969zm58.357 112.757v35.127H283.2l35.127-35.127zM176.07 148.32c0-3.8 3.092-6.891 6.891-6.891H329.04a6.9 6.9 0 016.89 6.89 6.9 6.9 0 01-6.89 6.892H182.96a6.9 6.9 0 01-6.89-6.891zM256 436.729c-32.206 0-59.324-23.664-64.21-54.884h128.42c-4.886 31.22-32.004 54.883-64.21 54.883zm73.039-66.156H182.96a6.9 6.9 0 01-6.89-6.891 6.9 6.9 0 016.89-6.891H329.04a6.9 6.9 0 016.89 6.891 6.9 6.9 0 01-6.89 6.891z"
        fill="#fcdb03" fill-rule="nonzero" /></svg>